# xmcd
#
# Track frame offsets:
#	183
#	15483
#	37908
#	46495
#	59995
#	80283
#	98845
#	115158
#	135970
#	149733
#	168358
#	189545
#
# Disc length: 2777 seconds
#
# Revision: 0
# Processed by: cddbd v1.5.1PL2 Copyright (c) Steve Scherf et al.
# Submitted via: audiograbber 1.83.01
#
DISCID=a00ad70c
DTITLE=Commando - Battle of this Week
DYEAR=1990
DGENRE=Pop
TTITLE0=Brushing
TTITLE1=Tears Aren't Made of Whiskey
TTITLE2=Reason to Desire
TTITLE3=I'm a Man
TTITLE4=Cover My Spirit
TTITLE5=Innocent Child
TTITLE6=Just a Dream
TTITLE7=Tears of Gold
TTITLE8=Big Sleep
TTITLE9=Battle of this Week
TTITLE10=Under the Cold Blue Moon
TTITLE11=Hymne a l'Amour
EXTD=
EXTT0=
EXTT1=
EXTT2=
EXTT3=
EXTT4=
EXTT5=
EXTT6=
EXTT7=
EXTT8=
EXTT9=
EXTT10=
EXTT11=
PLAYORDER=
